<?xml version="1.0" encoding="UTF-8" standalone="no"?>
<?xml-stylesheet href="
  data:text/css,
  @import url(https://fonts.googleapis.com/css?family=Roboto:400,700);
  svg text {
    font-family: 'Roboto';
  }
  .node text {
    font-size: 12px;
  }
%23node1406244200973440:hover { stroke-width: 0.2em; }
%23node1406244200973440:hover ~ %23node1406244200973441 { stroke-width: 0.2em; }
%23node1406244200973441:hover ~ %23node1406244200973440 { stroke-width: 0.2em; }
%23node1406244200973441:hover { stroke-width: 0.2em; }
" type="text/css"?>
<!DOCTYPE svg PUBLIC "-//W3C//DTD SVG 1.1//EN"
 "http://www.w3.org/Graphics/SVG/1.1/DTD/svg11.dtd">
<!-- Generated by graphviz version 7.1.0 (20230121.1956)
 -->
<!-- Title: G Pages: 1 -->
<svg width="312pt" height="245pt"
 viewBox="0.00 0.00 311.50 245.00" xmlns="http://www.w3.org/2000/svg" xmlns:xlink="http://www.w3.org/1999/xlink">
<g id="graph0" class="graph" transform="scale(1 1) rotate(0) translate(4 241)">
<title>G</title>
<polygon fill="white" stroke="none" points="-4,4 -4,-241 307.5,-241 307.5,4 -4,4"/>
<text text-anchor="middle" x="151.75" y="-217.8" font-family="Times,serif" font-size="19.00"> </text>
<!-- 140624420098800 -->
<g id="node140624420098800" class="node">
<title>140624420098800</title>
<g id="a_node140624420098800"><a xlink:title=" ">
<polygon fill="#fff26e" stroke="#ffdb13" points="247.5,-122 162.5,-122 162.5,-86 247.5,-86 247.5,-122"/>
<text text-anchor="start" x="170.5" y="-107.8" font-family="Times,serif" font-weight="bold" font-size="14.00">dot_general</text>
<text text-anchor="start" x="191" y="-93.8" font-family="Times,serif" font-size="14.00">f32[]</text>
</a>
</g>
</g>
<!-- 140624420098176 -->
<g id="node140624420098176" class="node">
<title>140624420098176</title>
<g id="a_node140624420098176"><a xlink:title=" ">
<polygon fill="#aabfff" stroke="#0053d6" stroke-width="2" points="165.5,-50 110.5,-50 110.5,0 165.5,0 165.5,-50"/>
<text text-anchor="start" x="118.5" y="-35.8" font-family="Times,serif" font-weight="bold" font-size="14.00">output</text>
<text text-anchor="start" x="126" y="-21.8" font-family="Times,serif" font-weight="bold" font-size="14.00">mul</text>
<text text-anchor="start" x="124" y="-7.8" font-family="Times,serif" font-size="14.00">f32[]</text>
</a>
</g>
</g>
<!-- 140624420098800&#45;&gt;140624420098176 -->
<g id="edge5" class="edge">
<title>140624420098800&#45;&gt;140624420098176</title>
<path fill="none" stroke="black" d="M189.8,-85.53C182.95,-77.66 174.63,-68.1 166.69,-58.97"/>
<polygon fill="black" stroke="black" points="169.44,-56.8 160.23,-51.55 164.16,-61.39 169.44,-56.8"/>
</g>
<!-- 140624420098384 -->
<g id="node140624420098384" class="node">
<title>140624420098384</title>
<g id="a_node140624420098384"><a xlink:title=" ">
<polygon fill="#fff26e" stroke="#ffdb13" points="144,-122 0,-122 0,-86 144,-86 144,-122"/>
<text text-anchor="start" x="8" y="-107.8" font-family="Times,serif" font-weight="bold" font-size="14.00">convert_element_type</text>
<text text-anchor="start" x="58" y="-93.8" font-family="Times,serif" font-size="14.00">f32[]</text>
</a>
</g>
</g>
<!-- 140624420098384&#45;&gt;140624420098176 -->
<g id="edge4" class="edge">
<title>140624420098384&#45;&gt;140624420098176</title>
<path fill="none" stroke="black" d="M86.98,-85.53C93.72,-77.66 101.91,-68.1 109.74,-58.97"/>
<polygon fill="black" stroke="black" points="112.24,-61.43 116.09,-51.56 106.93,-56.87 112.24,-61.43"/>
</g>
<!-- 1406244200973440 -->
<g id="node1406244200973440" class="node">
<title>1406244200973440</title>
<polygon fill="#ffdeaf" stroke="#ff8a4f" points="214.5,-201 143.5,-201 143.5,-165 214.5,-165 214.5,-201"/>
<text text-anchor="start" x="158.5" y="-186.8" font-family="Times,serif" font-weight="bold" font-size="14.00">args[0]</text>
<text text-anchor="start" x="151.5" y="-172.8" font-family="Times,serif" font-size="14.00">f32[5001]</text>
</g>
<!-- 1406244200973440&#45;&gt;140624420098800 -->
<g id="edge1" class="edge">
<title>1406244200973440&#45;&gt;140624420098800</title>
<path fill="none" stroke="black" d="M184.9,-164.53C188.02,-155.27 191.94,-143.68 195.48,-133.19"/>
<polygon fill="black" stroke="black" points="198.76,-134.43 198.64,-123.84 192.12,-132.19 198.76,-134.43"/>
</g>
<!-- 1406244200973441 -->
<g id="node1406244200973441" class="node">
<title>1406244200973441</title>
<polygon fill="#ffeacc" stroke="#ff8a4f" points="303.5,-208 232.5,-208 232.5,-158 303.5,-158 303.5,-208"/>
<text text-anchor="start" x="248" y="-193.8" font-family="Times,serif" font-weight="bold" font-size="14.00" fill="#565858">(reuse)</text>
<text text-anchor="start" x="247.5" y="-179.8" font-family="Times,serif" font-weight="bold" font-size="14.00" fill="#565858">args[0]</text>
<text text-anchor="start" x="240.5" y="-165.8" font-family="Times,serif" font-size="14.00" fill="#565858">f32[5001]</text>
</g>
<!-- 1406244200973441&#45;&gt;140624420098800 -->
<g id="edge2" class="edge">
<title>1406244200973441&#45;&gt;140624420098800</title>
<path fill="none" stroke="black" d="M248.07,-157.64C241.18,-149.22 233.44,-139.77 226.45,-131.21"/>
<polygon fill="black" stroke="black" points="229.22,-129.07 220.18,-123.55 223.8,-133.5 229.22,-129.07"/>
</g>
<!-- 140623568131856 -->
<g id="node6" class="node">
<title>140623568131856</title>
<polygon fill="#e6d6ff" stroke="#a261ff" points="99,-201 45,-201 45,-165 99,-165 99,-201"/>
<text text-anchor="start" x="61" y="-180.3" font-family="Times,serif" font-weight="bold" font-size="14.00">&#45;0.5</text>
</g>
<!-- 140623568131856&#45;&gt;140624420098384 -->
<g id="edge3" class="edge">
<title>140623568131856&#45;&gt;140624420098384</title>
<path fill="none" stroke="black" d="M72,-164.53C72,-155.47 72,-144.17 72,-133.86"/>
<polygon fill="black" stroke="black" points="75.5,-133.92 72,-123.92 68.5,-133.92 75.5,-133.92"/>
</g>
</g>
</svg>
