<?xml version="1.0" encoding="UTF-8" standalone="no"?>
<?xml-stylesheet href="
  data:text/css,
  @import url(https://fonts.googleapis.com/css?family=Roboto:400,700);
  svg text {
    font-family: 'Roboto';
  }
  .node text {
    font-size: 12px;
  }
%23node1406244200973440:hover { stroke-width: 0.2em; }
%23node1406244200973440:hover ~ %23node1406244200973441 { stroke-width: 0.2em; }
%23node1406244200973440:hover ~ %23node1406244200973442 { stroke-width: 0.2em; }
%23node1406244200973440:hover ~ %23node1406244200973443 { stroke-width: 0.2em; }
%23node1406244200973441:hover ~ %23node1406244200973440 { stroke-width: 0.2em; }
%23node1406244200973441:hover { stroke-width: 0.2em; }
%23node1406244200973441:hover ~ %23node1406244200973442 { stroke-width: 0.2em; }
%23node1406244200973441:hover ~ %23node1406244200973443 { stroke-width: 0.2em; }
%23node1406244200973442:hover ~ %23node1406244200973440 { stroke-width: 0.2em; }
%23node1406244200973442:hover ~ %23node1406244200973441 { stroke-width: 0.2em; }
%23node1406244200973442:hover { stroke-width: 0.2em; }
%23node1406244200973442:hover ~ %23node1406244200973443 { stroke-width: 0.2em; }
%23node1406244200973443:hover ~ %23node1406244200973440 { stroke-width: 0.2em; }
%23node1406244200973443:hover ~ %23node1406244200973441 { stroke-width: 0.2em; }
%23node1406244200973443:hover ~ %23node1406244200973442 { stroke-width: 0.2em; }
%23node1406244200973443:hover { stroke-width: 0.2em; }
" type="text/css"?>
<!DOCTYPE svg PUBLIC "-//W3C//DTD SVG 1.1//EN"
 "http://www.w3.org/Graphics/SVG/1.1/DTD/svg11.dtd">
<!-- Generated by graphviz version 7.1.0 (20230121.1956)
 -->
<!-- Title: G Pages: 1 -->
<svg width="618pt" height="835pt"
 viewBox="0.00 0.00 618.00 835.00" xmlns="http://www.w3.org/2000/svg" xmlns:xlink="http://www.w3.org/1999/xlink">
<g id="graph0" class="graph" transform="scale(1 1) rotate(0) translate(4 831)">
<title>G</title>
<polygon fill="white" stroke="none" points="-4,4 -4,-831 614,-831 614,4 -4,4"/>
<text text-anchor="middle" x="305" y="-807.8" font-family="Times,serif" font-size="19.00"> </text>
<!-- 140624420098176 -->
<g id="node140624420098176" class="node">
<title>140624420098176</title>
<g id="a_node140624420098176"><a xlink:title=" ">
<polygon fill="#fff26e" stroke="#ffdb13" points="488,-712 390,-712 390,-676 488,-676 488,-712"/>
<text text-anchor="start" x="398" y="-697.8" font-family="Times,serif" font-weight="bold" font-size="14.00">dynamic_slice</text>
<text text-anchor="start" x="422" y="-683.8" font-family="Times,serif" font-size="14.00">f32[1]</text>
</a>
</g>
</g>
<!-- 140624420098592 -->
<g id="node140624420098592" class="node">
<title>140624420098592</title>
<g id="a_node140624420098592"><a xlink:title=" ">
<polygon fill="#fff26e" stroke="#ffdb13" points="456.5,-640 395.5,-640 395.5,-604 456.5,-604 456.5,-640"/>
<text text-anchor="start" x="403.5" y="-625.8" font-family="Times,serif" font-weight="bold" font-size="14.00">squeeze</text>
<text text-anchor="start" x="412" y="-611.8" font-family="Times,serif" font-size="14.00">f32[]</text>
</a>
</g>
</g>
<!-- 140624420098176&#45;&gt;140624420098592 -->
<g id="edge3" class="edge">
<title>140624420098176&#45;&gt;140624420098592</title>
<path fill="none" stroke="black" d="M435.79,-675.7C434.42,-668.32 432.78,-659.52 431.25,-651.25"/>
<polygon fill="black" stroke="black" points="434.72,-650.79 429.45,-641.59 427.84,-652.06 434.72,-650.79"/>
</g>
<!-- 140624420099632 -->
<g id="node140624420099632" class="node">
<title>140624420099632</title>
<g id="a_node140624420099632"><a xlink:title=" ">
<polygon fill="#fff26e" stroke="#ffdb13" points="403.5,-568 332.5,-568 332.5,-532 403.5,-532 403.5,-568"/>
<text text-anchor="start" x="357" y="-553.8" font-family="Times,serif" font-weight="bold" font-size="14.00">add</text>
<text text-anchor="start" x="340.5" y="-539.8" font-family="Times,serif" font-size="14.00">f32[1000]</text>
</a>
</g>
</g>
<!-- 140624420098592&#45;&gt;140624420099632 -->
<g id="edge8" class="edge">
<title>140624420098592&#45;&gt;140624420099632</title>
<path fill="none" stroke="black" d="M411.66,-603.7C404.92,-595.56 396.74,-585.69 389.3,-576.7"/>
<polygon fill="black" stroke="black" points="392.21,-574.74 383.14,-569.27 386.82,-579.2 392.21,-574.74"/>
</g>
<!-- 140624420098800 -->
<g id="node140624420098800" class="node">
<title>140624420098800</title>
<g id="a_node140624420098800"><a xlink:title=" ">
<polygon fill="#fff26e" stroke="#ffdb13" points="372,-712 274,-712 274,-676 372,-676 372,-712"/>
<text text-anchor="start" x="282" y="-697.8" font-family="Times,serif" font-weight="bold" font-size="14.00">dynamic_slice</text>
<text text-anchor="start" x="295.5" y="-683.8" font-family="Times,serif" font-size="14.00">f32[5000]</text>
</a>
</g>
</g>
<!-- 140624420099424 -->
<g id="node140624420099424" class="node">
<title>140624420099424</title>
<g id="a_node140624420099424"><a xlink:title=" ">
<polygon fill="#fff26e" stroke="#ffdb13" points="365.5,-640 280.5,-640 280.5,-604 365.5,-604 365.5,-640"/>
<text text-anchor="start" x="288.5" y="-625.8" font-family="Times,serif" font-weight="bold" font-size="14.00">dot_general</text>
<text text-anchor="start" x="295.5" y="-611.8" font-family="Times,serif" font-size="14.00">f32[1000]</text>
</a>
</g>
</g>
<!-- 140624420098800&#45;&gt;140624420099424 -->
<g id="edge7" class="edge">
<title>140624420098800&#45;&gt;140624420099424</title>
<path fill="none" stroke="black" d="M323,-675.7C323,-668.41 323,-659.73 323,-651.54"/>
<polygon fill="black" stroke="black" points="326.5,-651.62 323,-641.62 319.5,-651.62 326.5,-651.62"/>
</g>
<!-- 140624420099424&#45;&gt;140624420099632 -->
<g id="edge9" class="edge">
<title>140624420099424&#45;&gt;140624420099632</title>
<path fill="none" stroke="black" d="M334.12,-603.7C339.19,-595.81 345.3,-586.3 350.93,-577.55"/>
<polygon fill="black" stroke="black" points="353.72,-579.68 356.19,-569.38 347.83,-575.9 353.72,-579.68"/>
</g>
<!-- 140624420099216 -->
<g id="node140624420099216" class="node">
<title>140624420099216</title>
<g id="a_node140624420099216"><a xlink:title=" ">
<polygon fill="#fff26e" stroke="#ffdb13" points="403.5,-496 332.5,-496 332.5,-460 403.5,-460 403.5,-496"/>
<text text-anchor="start" x="347.5" y="-481.8" font-family="Times,serif" font-weight="bold" font-size="14.00">logistic</text>
<text text-anchor="start" x="340.5" y="-467.8" font-family="Times,serif" font-size="14.00">f32[1000]</text>
</a>
</g>
</g>
<!-- 140624420099632&#45;&gt;140624420099216 -->
<g id="edge10" class="edge">
<title>140624420099632&#45;&gt;140624420099216</title>
<path fill="none" stroke="black" d="M368,-531.7C368,-524.41 368,-515.73 368,-507.54"/>
<polygon fill="black" stroke="black" points="371.5,-507.62 368,-497.62 364.5,-507.62 371.5,-507.62"/>
</g>
<!-- 140624420100048 -->
<g id="node140624420100048" class="node">
<title>140624420100048</title>
<g id="a_node140624420100048"><a xlink:title=" ">
<polygon fill="#fff26e" stroke="#ffdb13" points="447.5,-424 376.5,-424 376.5,-388 447.5,-388 447.5,-424"/>
<text text-anchor="start" x="403" y="-409.8" font-family="Times,serif" font-weight="bold" font-size="14.00">log</text>
<text text-anchor="start" x="384.5" y="-395.8" font-family="Times,serif" font-size="14.00">f32[1000]</text>
</a>
</g>
</g>
<!-- 140624420099216&#45;&gt;140624420100048 -->
<g id="edge11" class="edge">
<title>140624420099216&#45;&gt;140624420100048</title>
<path fill="none" stroke="black" d="M378.88,-459.7C383.78,-451.9 389.68,-442.51 395.14,-433.83"/>
<polygon fill="black" stroke="black" points="398.08,-435.71 400.44,-425.39 392.16,-431.99 398.08,-435.71"/>
</g>
<!-- 140624420100880 -->
<g id="node140624420100880" class="node">
<title>140624420100880</title>
<g id="a_node140624420100880"><a xlink:title=" ">
<polygon fill="#fff26e" stroke="#ffdb13" points="358.5,-424 287.5,-424 287.5,-388 358.5,-388 358.5,-424"/>
<text text-anchor="start" x="312.5" y="-409.8" font-family="Times,serif" font-weight="bold" font-size="14.00">neg</text>
<text text-anchor="start" x="295.5" y="-395.8" font-family="Times,serif" font-size="14.00">f32[1000]</text>
</a>
</g>
</g>
<!-- 140624420099216&#45;&gt;140624420100880 -->
<g id="edge15" class="edge">
<title>140624420099216&#45;&gt;140624420100880</title>
<path fill="none" stroke="black" d="M356.88,-459.7C351.81,-451.81 345.7,-442.3 340.07,-433.55"/>
<polygon fill="black" stroke="black" points="343.17,-431.9 334.81,-425.38 337.28,-435.68 343.17,-431.9"/>
</g>
<!-- 140624420100464 -->
<g id="node140624420100464" class="node">
<title>140624420100464</title>
<g id="a_node140624420100464"><a xlink:title=" ">
<polygon fill="#fff26e" stroke="#ffdb13" points="447.5,-352 376.5,-352 376.5,-316 447.5,-316 447.5,-352"/>
<text text-anchor="start" x="400" y="-337.8" font-family="Times,serif" font-weight="bold" font-size="14.00">mul</text>
<text text-anchor="start" x="384.5" y="-323.8" font-family="Times,serif" font-size="14.00">f32[1000]</text>
</a>
</g>
</g>
<!-- 140624420100048&#45;&gt;140624420100464 -->
<g id="edge14" class="edge">
<title>140624420100048&#45;&gt;140624420100464</title>
<path fill="none" stroke="black" d="M412,-387.7C412,-380.41 412,-371.73 412,-363.54"/>
<polygon fill="black" stroke="black" points="415.5,-363.62 412,-353.62 408.5,-363.62 415.5,-363.62"/>
</g>
<!-- 140624420100256 -->
<g id="node140624420100256" class="node">
<title>140624420100256</title>
<g id="a_node140624420100256"><a xlink:title=" ">
<polygon fill="#fff26e" stroke="#ffdb13" points="610,-424 466,-424 466,-388 610,-388 610,-424"/>
<text text-anchor="start" x="474" y="-409.8" font-family="Times,serif" font-weight="bold" font-size="14.00">convert_element_type</text>
<text text-anchor="start" x="510.5" y="-395.8" font-family="Times,serif" font-size="14.00">f32[1000]</text>
</a>
</g>
</g>
<!-- 140624420100256&#45;&gt;140624420100464 -->
<g id="edge13" class="edge">
<title>140624420100256&#45;&gt;140624420100464</title>
<path fill="none" stroke="black" d="M506.53,-387.52C490.32,-378.51 470.36,-367.42 452.97,-357.76"/>
<polygon fill="black" stroke="black" points="454.83,-354.79 444.39,-353 451.43,-360.91 454.83,-354.79"/>
</g>
<!-- 140624420101712 -->
<g id="node140624420101712" class="node">
<title>140624420101712</title>
<g id="a_node140624420101712"><a xlink:title=" ">
<polygon fill="#fff26e" stroke="#ffdb13" points="358.5,-194 287.5,-194 287.5,-158 358.5,-158 358.5,-194"/>
<text text-anchor="start" x="312" y="-179.8" font-family="Times,serif" font-weight="bold" font-size="14.00">add</text>
<text text-anchor="start" x="295.5" y="-165.8" font-family="Times,serif" font-size="14.00">f32[1000]</text>
</a>
</g>
</g>
<!-- 140624420100464&#45;&gt;140624420101712 -->
<g id="edge20" class="edge">
<title>140624420100464&#45;&gt;140624420101712</title>
<path fill="none" stroke="black" d="M406.45,-315.83C399.25,-294.74 385.49,-258.28 368,-230 362.13,-220.5 354.62,-210.94 347.43,-202.61"/>
<polygon fill="black" stroke="black" points="350.12,-200.37 340.85,-195.24 344.9,-205.03 350.12,-200.37"/>
</g>
<!-- 140624420101088 -->
<g id="node140624420101088" class="node">
<title>140624420101088</title>
<g id="a_node140624420101088"><a xlink:title=" ">
<polygon fill="#fff26e" stroke="#ffdb13" points="358.5,-352 287.5,-352 287.5,-316 358.5,-316 358.5,-352"/>
<text text-anchor="start" x="307" y="-337.8" font-family="Times,serif" font-weight="bold" font-size="14.00">log1p</text>
<text text-anchor="start" x="295.5" y="-323.8" font-family="Times,serif" font-size="14.00">f32[1000]</text>
</a>
</g>
</g>
<!-- 140624420100880&#45;&gt;140624420101088 -->
<g id="edge16" class="edge">
<title>140624420100880&#45;&gt;140624420101088</title>
<path fill="none" stroke="black" d="M323,-387.7C323,-380.41 323,-371.73 323,-363.54"/>
<polygon fill="black" stroke="black" points="326.5,-363.62 323,-353.62 319.5,-363.62 326.5,-363.62"/>
</g>
<!-- 140624420101504 -->
<g id="node140624420101504" class="node">
<title>140624420101504</title>
<g id="a_node140624420101504"><a xlink:title=" ">
<polygon fill="#fff26e" stroke="#ffdb13" points="358.5,-273 287.5,-273 287.5,-237 358.5,-237 358.5,-273"/>
<text text-anchor="start" x="311" y="-258.8" font-family="Times,serif" font-weight="bold" font-size="14.00">mul</text>
<text text-anchor="start" x="295.5" y="-244.8" font-family="Times,serif" font-size="14.00">f32[1000]</text>
</a>
</g>
</g>
<!-- 140624420101088&#45;&gt;140624420101504 -->
<g id="edge19" class="edge">
<title>140624420101088&#45;&gt;140624420101504</title>
<path fill="none" stroke="black" d="M323,-315.53C323,-306.47 323,-295.17 323,-284.86"/>
<polygon fill="black" stroke="black" points="326.5,-284.92 323,-274.92 319.5,-284.92 326.5,-284.92"/>
</g>
<!-- 140624420101296 -->
<g id="node140624420101296" class="node">
<title>140624420101296</title>
<g id="a_node140624420101296"><a xlink:title=" ">
<polygon fill="#fff26e" stroke="#ffdb13" points="269,-352 125,-352 125,-316 269,-316 269,-352"/>
<text text-anchor="start" x="133" y="-337.8" font-family="Times,serif" font-weight="bold" font-size="14.00">convert_element_type</text>
<text text-anchor="start" x="169.5" y="-323.8" font-family="Times,serif" font-size="14.00">f32[1000]</text>
</a>
</g>
</g>
<!-- 140624420101296&#45;&gt;140624420101504 -->
<g id="edge18" class="edge">
<title>140624420101296&#45;&gt;140624420101504</title>
<path fill="none" stroke="black" d="M225.59,-315.53C243.15,-304.8 265.86,-290.92 284.93,-279.27"/>
<polygon fill="black" stroke="black" points="286.52,-282.39 293.23,-274.19 282.87,-276.42 286.52,-282.39"/>
</g>
<!-- 140624420101504&#45;&gt;140624420101712 -->
<g id="edge21" class="edge">
<title>140624420101504&#45;&gt;140624420101712</title>
<path fill="none" stroke="black" d="M323,-236.53C323,-227.47 323,-216.17 323,-205.86"/>
<polygon fill="black" stroke="black" points="326.5,-205.92 323,-195.92 319.5,-205.92 326.5,-205.92"/>
</g>
<!-- 140624420101920 -->
<g id="node140624420101920" class="node">
<title>140624420101920</title>
<g id="a_node140624420101920"><a xlink:title=" ">
<polygon fill="#fff26e" stroke="#ffdb13" points="355.5,-122 268.5,-122 268.5,-86 355.5,-86 355.5,-122"/>
<text text-anchor="start" x="276.5" y="-107.8" font-family="Times,serif" font-weight="bold" font-size="14.00">reduce_sum</text>
<text text-anchor="start" x="298" y="-93.8" font-family="Times,serif" font-size="14.00">f32[]</text>
</a>
</g>
</g>
<!-- 140624420101712&#45;&gt;140624420101920 -->
<g id="edge22" class="edge">
<title>140624420101712&#45;&gt;140624420101920</title>
<path fill="none" stroke="black" d="M320.28,-157.7C319.12,-150.32 317.74,-141.52 316.44,-133.25"/>
<polygon fill="black" stroke="black" points="319.93,-132.93 314.92,-123.6 313.02,-134.02 319.93,-132.93"/>
</g>
<!-- 140624420102752 -->
<g id="node140624420102752" class="node">
<title>140624420102752</title>
<g id="a_node140624420102752"><a xlink:title=" ">
<polygon fill="#aabfff" stroke="#0053d6" stroke-width="2" points="291.5,-50 236.5,-50 236.5,0 291.5,0 291.5,-50"/>
<text text-anchor="start" x="244.5" y="-35.8" font-family="Times,serif" font-weight="bold" font-size="14.00">output</text>
<text text-anchor="start" x="253.5" y="-21.8" font-family="Times,serif" font-weight="bold" font-size="14.00">sub</text>
<text text-anchor="start" x="250" y="-7.8" font-family="Times,serif" font-size="14.00">f32[]</text>
</a>
</g>
</g>
<!-- 140624420101920&#45;&gt;140624420102752 -->
<g id="edge28" class="edge">
<title>140624420101920&#45;&gt;140624420102752</title>
<path fill="none" stroke="black" d="M301.11,-85.53C296.41,-77.98 290.73,-68.89 285.26,-60.1"/>
<polygon fill="black" stroke="black" points="288.28,-58.33 280.02,-51.69 282.34,-62.03 288.28,-58.33"/>
</g>
<!-- 140624420102128 -->
<g id="node140624420102128" class="node">
<title>140624420102128</title>
<g id="a_node140624420102128"><a xlink:title=" ">
<polygon fill="#fff26e" stroke="#ffdb13" points="262.5,-194 177.5,-194 177.5,-158 262.5,-158 262.5,-194"/>
<text text-anchor="start" x="185.5" y="-179.8" font-family="Times,serif" font-weight="bold" font-size="14.00">dot_general</text>
<text text-anchor="start" x="206" y="-165.8" font-family="Times,serif" font-size="14.00">f32[]</text>
</a>
</g>
</g>
<!-- 140624420100672 -->
<g id="node140624420100672" class="node">
<title>140624420100672</title>
<g id="a_node140624420100672"><a xlink:title=" ">
<polygon fill="#fff26e" stroke="#ffdb13" points="247,-122 193,-122 193,-86 247,-86 247,-122"/>
<text text-anchor="start" x="208" y="-107.8" font-family="Times,serif" font-weight="bold" font-size="14.00">mul</text>
<text text-anchor="start" x="206" y="-93.8" font-family="Times,serif" font-size="14.00">f32[]</text>
</a>
</g>
</g>
<!-- 140624420102128&#45;&gt;140624420100672 -->
<g id="edge27" class="edge">
<title>140624420102128&#45;&gt;140624420100672</title>
<path fill="none" stroke="black" d="M220,-157.7C220,-150.41 220,-141.73 220,-133.54"/>
<polygon fill="black" stroke="black" points="223.5,-133.62 220,-123.62 216.5,-133.62 223.5,-133.62"/>
</g>
<!-- 140624420102544 -->
<g id="node140624420102544" class="node">
<title>140624420102544</title>
<g id="a_node140624420102544"><a xlink:title=" ">
<polygon fill="#fff26e" stroke="#ffdb13" points="144,-194 0,-194 0,-158 144,-158 144,-194"/>
<text text-anchor="start" x="8" y="-179.8" font-family="Times,serif" font-weight="bold" font-size="14.00">convert_element_type</text>
<text text-anchor="start" x="58" y="-165.8" font-family="Times,serif" font-size="14.00">f32[]</text>
</a>
</g>
</g>
<!-- 140624420102544&#45;&gt;140624420100672 -->
<g id="edge26" class="edge">
<title>140624420102544&#45;&gt;140624420100672</title>
<path fill="none" stroke="black" d="M108.96,-157.52C131.43,-146.89 160.04,-133.36 182.59,-122.69"/>
<polygon fill="black" stroke="black" points="183.89,-125.95 191.43,-118.51 180.9,-119.62 183.89,-125.95"/>
</g>
<!-- 140624420100672&#45;&gt;140624420102752 -->
<g id="edge29" class="edge">
<title>140624420100672&#45;&gt;140624420102752</title>
<path fill="none" stroke="black" d="M229.98,-85.53C234.25,-78.06 239.38,-69.08 244.35,-60.38"/>
<polygon fill="black" stroke="black" points="247.38,-62.14 249.3,-51.72 241.3,-58.67 247.38,-62.14"/>
</g>
<!-- 1406244200973440 -->
<g id="node1406244200973440" class="node">
<title>1406244200973440</title>
<polygon fill="#ffdeaf" stroke="#ff8a4f" points="465.5,-791 394.5,-791 394.5,-755 465.5,-755 465.5,-791"/>
<text text-anchor="start" x="409.5" y="-776.8" font-family="Times,serif" font-weight="bold" font-size="14.00">args[0]</text>
<text text-anchor="start" x="402.5" y="-762.8" font-family="Times,serif" font-size="14.00">f32[5001]</text>
</g>
<!-- 1406244200973440&#45;&gt;140624420098176 -->
<g id="edge1" class="edge">
<title>1406244200973440&#45;&gt;140624420098176</title>
<path fill="none" stroke="black" d="M432.04,-754.53C433.11,-745.37 434.45,-733.93 435.67,-723.53"/>
<polygon fill="black" stroke="black" points="439.11,-724.25 436.79,-713.91 432.15,-723.43 439.11,-724.25"/>
</g>
<!-- 140624420098384 -->
<g id="node21" class="node">
<title>140624420098384</title>
<polygon fill="#e6d6ff" stroke="#a261ff" points="538,-791 484,-791 484,-755 538,-755 538,-791"/>
<text text-anchor="start" x="497" y="-770.3" font-family="Times,serif" font-weight="bold" font-size="14.00">s32[]</text>
</g>
<!-- 140624420098384&#45;&gt;140624420098176 -->
<g id="edge2" class="edge">
<title>140624420098384&#45;&gt;140624420098176</title>
<path fill="none" stroke="black" d="M494.66,-754.53C485.27,-744.49 473.31,-731.69 462.88,-720.54"/>
<polygon fill="black" stroke="black" points="465.69,-718.42 456.31,-713.51 460.58,-723.2 465.69,-718.42"/>
</g>
<!-- 1406244200973441 -->
<g id="node1406244200973441" class="node">
<title>1406244200973441</title>
<polygon fill="#ffeacc" stroke="#ff8a4f" points="286.5,-798 215.5,-798 215.5,-748 286.5,-748 286.5,-798"/>
<text text-anchor="start" x="231" y="-783.8" font-family="Times,serif" font-weight="bold" font-size="14.00" fill="#565858">(reuse)</text>
<text text-anchor="start" x="230.5" y="-769.8" font-family="Times,serif" font-weight="bold" font-size="14.00" fill="#565858">args[0]</text>
<text text-anchor="start" x="223.5" y="-755.8" font-family="Times,serif" font-size="14.00" fill="#565858">f32[5001]</text>
</g>
<!-- 1406244200973441&#45;&gt;140624420098800 -->
<g id="edge4" class="edge">
<title>1406244200973441&#45;&gt;140624420098800</title>
<path fill="none" stroke="black" d="M273.78,-747.64C281.82,-739.05 290.87,-729.36 299,-720.67"/>
<polygon fill="black" stroke="black" points="301.44,-723.18 305.72,-713.48 296.33,-718.4 301.44,-723.18"/>
</g>
<!-- 140624420099008 -->
<g id="node23" class="node">
<title>140624420099008</title>
<polygon fill="#e6d6ff" stroke="#a261ff" points="359,-791 305,-791 305,-755 359,-755 359,-791"/>
<text text-anchor="start" x="318" y="-770.3" font-family="Times,serif" font-weight="bold" font-size="14.00">s32[]</text>
</g>
<!-- 140624420099008&#45;&gt;140624420098800 -->
<g id="edge5" class="edge">
<title>140624420099008&#45;&gt;140624420098800</title>
<path fill="none" stroke="black" d="M329.96,-754.53C328.89,-745.37 327.55,-733.93 326.33,-723.53"/>
<polygon fill="black" stroke="black" points="329.85,-723.43 325.21,-713.91 322.89,-724.25 329.85,-723.43"/>
</g>
<!-- 140624414494432 -->
<g id="node24" class="node">
<title>140624414494432</title>
<polygon fill="#e6d6ff" stroke="#a261ff" points="255.5,-712 154.5,-712 154.5,-676 255.5,-676 255.5,-712"/>
<text text-anchor="start" x="162.5" y="-691.3" font-family="Times,serif" font-weight="bold" font-size="14.00">f32[1000,5000]</text>
</g>
<!-- 140624414494432&#45;&gt;140624420099424 -->
<g id="edge6" class="edge">
<title>140624414494432&#45;&gt;140624420099424</title>
<path fill="none" stroke="black" d="M234.47,-675.52C249.51,-666.6 267.99,-655.63 284.18,-646.03"/>
<polygon fill="black" stroke="black" points="285.79,-649.15 292.6,-641.03 282.22,-643.12 285.79,-649.15"/>
</g>
<!-- 140624414495888 -->
<g id="node25" class="node">
<title>140624414495888</title>
<polygon fill="#e6d6ff" stroke="#a261ff" points="576.5,-496 499.5,-496 499.5,-460 576.5,-460 576.5,-496"/>
<text text-anchor="start" x="507.5" y="-475.3" font-family="Times,serif" font-weight="bold" font-size="14.00">bool[1000]</text>
</g>
<!-- 140624414495888&#45;&gt;140624420100256 -->
<g id="edge12" class="edge">
<title>140624414495888&#45;&gt;140624420100256</title>
<path fill="none" stroke="black" d="M538,-459.7C538,-452.41 538,-443.73 538,-435.54"/>
<polygon fill="black" stroke="black" points="541.5,-435.62 538,-425.62 534.5,-435.62 541.5,-435.62"/>
</g>
<!-- 140624420099840 -->
<g id="node26" class="node">
<title>140624420099840</title>
<polygon fill="#e6d6ff" stroke="#a261ff" points="232.5,-424 161.5,-424 161.5,-388 232.5,-388 232.5,-424"/>
<text text-anchor="start" x="169.5" y="-403.3" font-family="Times,serif" font-weight="bold" font-size="14.00">s32[1000]</text>
</g>
<!-- 140624420099840&#45;&gt;140624420101296 -->
<g id="edge17" class="edge">
<title>140624420099840&#45;&gt;140624420101296</title>
<path fill="none" stroke="black" d="M197,-387.7C197,-380.41 197,-371.73 197,-363.54"/>
<polygon fill="black" stroke="black" points="200.5,-363.62 197,-353.62 193.5,-363.62 200.5,-363.62"/>
</g>
<!-- 1406244200973442 -->
<g id="node1406244200973442" class="node">
<title>1406244200973442</title>
<polygon fill="#ffeacc" stroke="#ff8a4f" points="269.5,-280 198.5,-280 198.5,-230 269.5,-230 269.5,-280"/>
<text text-anchor="start" x="214" y="-265.8" font-family="Times,serif" font-weight="bold" font-size="14.00" fill="#565858">(reuse)</text>
<text text-anchor="start" x="213.5" y="-251.8" font-family="Times,serif" font-weight="bold" font-size="14.00" fill="#565858">args[0]</text>
<text text-anchor="start" x="206.5" y="-237.8" font-family="Times,serif" font-size="14.00" fill="#565858">f32[5001]</text>
</g>
<!-- 1406244200973442&#45;&gt;140624420102128 -->
<g id="edge23" class="edge">
<title>1406244200973442&#45;&gt;140624420102128</title>
<path fill="none" stroke="black" d="M229.57,-229.64C228.19,-222.03 226.65,-213.57 225.22,-205.69"/>
<polygon fill="black" stroke="black" points="228.66,-205.08 223.43,-195.87 221.78,-206.33 228.66,-205.08"/>
</g>
<!-- 1406244200973443 -->
<g id="node1406244200973443" class="node">
<title>1406244200973443</title>
<polygon fill="#ffeacc" stroke="#ff8a4f" points="180.5,-280 109.5,-280 109.5,-230 180.5,-230 180.5,-280"/>
<text text-anchor="start" x="125" y="-265.8" font-family="Times,serif" font-weight="bold" font-size="14.00" fill="#565858">(reuse)</text>
<text text-anchor="start" x="124.5" y="-251.8" font-family="Times,serif" font-weight="bold" font-size="14.00" fill="#565858">args[0]</text>
<text text-anchor="start" x="117.5" y="-237.8" font-family="Times,serif" font-size="14.00" fill="#565858">f32[5001]</text>
</g>
<!-- 1406244200973443&#45;&gt;140624420102128 -->
<g id="edge24" class="edge">
<title>1406244200973443&#45;&gt;140624420102128</title>
<path fill="none" stroke="black" d="M168.73,-229.64C177.19,-220.96 186.73,-211.16 195.26,-202.4"/>
<polygon fill="black" stroke="black" points="197.55,-205.07 202.02,-195.46 192.53,-200.18 197.55,-205.07"/>
</g>
<!-- 140624081320528 -->
<g id="node29" class="node">
<title>140624081320528</title>
<polygon fill="#e6d6ff" stroke="#a261ff" points="91,-273 37,-273 37,-237 91,-237 91,-273"/>
<text text-anchor="start" x="55" y="-252.3" font-family="Times,serif" font-weight="bold" font-size="14.00">0.5</text>
</g>
<!-- 140624081320528&#45;&gt;140624420102544 -->
<g id="edge25" class="edge">
<title>140624081320528&#45;&gt;140624420102544</title>
<path fill="none" stroke="black" d="M65.82,-236.53C66.77,-227.37 67.96,-215.93 69.04,-205.53"/>
<polygon fill="black" stroke="black" points="72.48,-206.22 70.04,-195.91 65.52,-205.49 72.48,-206.22"/>
</g>
</g>
</svg>
