<?xml version="1.0" encoding="UTF-8" standalone="no"?>
<?xml-stylesheet href="
  data:text/css,
  @import url(https://fonts.googleapis.com/css?family=Roboto:400,700);
  svg text {
    font-family: 'Roboto';
  }
  .node text {
    font-size: 12px;
  }
" type="text/css"?>
<!DOCTYPE svg PUBLIC "-//W3C//DTD SVG 1.1//EN"
 "http://www.w3.org/Graphics/SVG/1.1/DTD/svg11.dtd">
<!-- Generated by graphviz version 7.1.0 (20230121.1956)
 -->
<!-- Title: G Pages: 1 -->
<svg width="140pt" height="159pt"
 viewBox="0.00 0.00 140.00 159.00" xmlns="http://www.w3.org/2000/svg" xmlns:xlink="http://www.w3.org/1999/xlink">
<g id="graph0" class="graph" transform="scale(1 1) rotate(0) translate(4 155)">
<title>G</title>
<polygon fill="white" stroke="none" points="-4,4 -4,-155 136,-155 136,4 -4,4"/>
<text text-anchor="middle" x="66" y="-131.8" font-family="Times,serif" font-size="19.00"> </text>
<!-- 140221984072656 -->
<g id="node140221984072656" class="node">
<title>140221984072656</title>
<g id="a_node140221984072656"><a xlink:title=" ">
<polygon fill="#aabfff" stroke="#0053d6" stroke-width="2" points="93,-50 38,-50 38,0 93,0 93,-50"/>
<text text-anchor="start" x="46" y="-35.8" font-family="Times,serif" font-weight="bold" font-size="14.00">output</text>
<text text-anchor="start" x="55" y="-21.8" font-family="Times,serif" font-weight="bold" font-size="14.00">sub</text>
<text text-anchor="start" x="51.5" y="-7.8" font-family="Times,serif" font-size="14.00">f32[]</text>
</a>
</g>
</g>
<!-- 1402217099150880 -->
<g id="node1402217099150880" class="node">
<title>1402217099150880</title>
<polygon fill="#ffdeaf" stroke="#ff8a4f" points="57,-122 0,-122 0,-86 57,-86 57,-122"/>
<text text-anchor="start" x="8" y="-101.3" font-family="Times,serif" font-weight="bold" font-size="14.00">args[0]</text>
</g>
<!-- 1402217099150880&#45;&gt;140221984072656 -->
<g id="edge1" class="edge">
<title>1402217099150880&#45;&gt;140221984072656</title>
<path fill="none" stroke="black" d="M36.9,-85.53C40.44,-78.15 44.7,-69.28 48.84,-60.67"/>
<polygon fill="black" stroke="black" points="51.94,-62.3 53.12,-51.77 45.63,-59.27 51.94,-62.3"/>
</g>
<!-- 1402217107217760 -->
<g id="node1402217107217760" class="node">
<title>1402217107217760</title>
<polygon fill="#ffdeaf" stroke="#ff8a4f" points="132,-122 75,-122 75,-86 132,-86 132,-122"/>
<text text-anchor="start" x="83" y="-101.3" font-family="Times,serif" font-weight="bold" font-size="14.00">args[1]</text>
</g>
<!-- 1402217107217760&#45;&gt;140221984072656 -->
<g id="edge2" class="edge">
<title>1402217107217760&#45;&gt;140221984072656</title>
<path fill="none" stroke="black" d="M94.88,-85.53C91.23,-78.15 86.86,-69.28 82.61,-60.67"/>
<polygon fill="black" stroke="black" points="85.78,-59.18 78.22,-51.77 79.5,-62.28 85.78,-59.18"/>
</g>
</g>
</svg>
