<?xml version="1.0" encoding="UTF-8" standalone="no"?>
<?xml-stylesheet href="
  data:text/css,
  @import url(https://fonts.googleapis.com/css?family=Roboto:400,700);
  svg text {
    font-family: 'Roboto';
  }
  .node text {
    font-size: 12px;
  }
%23node1402219840659360:hover { stroke-width: 0.2em; }
%23node1402219840659360:hover ~ %23node1402219840659361 { stroke-width: 0.2em; }
%23node1402219840659361:hover ~ %23node1402219840659360 { stroke-width: 0.2em; }
%23node1402219840659361:hover { stroke-width: 0.2em; }
" type="text/css"?>
<!DOCTYPE svg PUBLIC "-//W3C//DTD SVG 1.1//EN"
 "http://www.w3.org/Graphics/SVG/1.1/DTD/svg11.dtd">
<!-- Generated by graphviz version 7.1.0 (20230121.1956)
 -->
<!-- Title: G Pages: 1 -->
<svg width="362pt" height="317pt"
 viewBox="0.00 0.00 362.00 317.00" xmlns="http://www.w3.org/2000/svg" xmlns:xlink="http://www.w3.org/1999/xlink">
<g id="graph0" class="graph" transform="scale(1 1) rotate(0) translate(4 313)">
<title>G</title>
<polygon fill="white" stroke="none" points="-4,4 -4,-313 358,-313 358,4 -4,4"/>
<text text-anchor="middle" x="177" y="-289.8" font-family="Times,serif" font-size="19.00"> </text>
<!-- 140221984066416 -->
<g id="node140221984066416" class="node">
<title>140221984066416</title>
<g id="a_node140221984066416"><a xlink:title=" ">
<polygon fill="#fff26e" stroke="#ffdb13" points="334,-194 236,-194 236,-158 334,-158 334,-194"/>
<text text-anchor="start" x="244" y="-179.8" font-family="Times,serif" font-weight="bold" font-size="14.00">dynamic_slice</text>
<text text-anchor="start" x="268" y="-165.8" font-family="Times,serif" font-size="14.00">f32[1]</text>
</a>
</g>
</g>
<!-- 140221984066896 -->
<g id="node140221984066896" class="node">
<title>140221984066896</title>
<g id="a_node140221984066896"><a xlink:title=" ">
<polygon fill="#fff26e" stroke="#ffdb13" points="301.5,-122 240.5,-122 240.5,-86 301.5,-86 301.5,-122"/>
<text text-anchor="start" x="248.5" y="-107.8" font-family="Times,serif" font-weight="bold" font-size="14.00">squeeze</text>
<text text-anchor="start" x="257" y="-93.8" font-family="Times,serif" font-size="14.00">f32[]</text>
</a>
</g>
</g>
<!-- 140221984066416&#45;&gt;140221984066896 -->
<g id="edge3" class="edge">
<title>140221984066416&#45;&gt;140221984066896</title>
<path fill="none" stroke="black" d="M281.54,-157.7C280.06,-150.32 278.3,-141.52 276.65,-133.25"/>
<polygon fill="black" stroke="black" points="280.11,-132.71 274.72,-123.59 273.25,-134.08 280.11,-132.71"/>
</g>
<!-- 140221984068336 -->
<g id="node140221984068336" class="node">
<title>140221984068336</title>
<g id="a_node140221984068336"><a xlink:title=" ">
<polygon fill="#aabfff" stroke="#0053d6" stroke-width="2" points="247.5,-50 176.5,-50 176.5,0 247.5,0 247.5,-50"/>
<text text-anchor="start" x="192.5" y="-35.8" font-family="Times,serif" font-weight="bold" font-size="14.00">output</text>
<text text-anchor="start" x="201" y="-21.8" font-family="Times,serif" font-weight="bold" font-size="14.00">add</text>
<text text-anchor="start" x="184.5" y="-7.8" font-family="Times,serif" font-size="14.00">f32[1000]</text>
</a>
</g>
</g>
<!-- 140221984066896&#45;&gt;140221984068336 -->
<g id="edge8" class="edge">
<title>140221984066896&#45;&gt;140221984068336</title>
<path fill="none" stroke="black" d="M257.61,-85.53C251.71,-77.82 244.56,-68.49 237.69,-59.53"/>
<polygon fill="black" stroke="black" points="240.48,-57.42 231.62,-51.61 234.93,-61.68 240.48,-57.42"/>
</g>
<!-- 140221984071216 -->
<g id="node140221984071216" class="node">
<title>140221984071216</title>
<g id="a_node140221984071216"><a xlink:title=" ">
<polygon fill="#fff26e" stroke="#ffdb13" points="98,-194 0,-194 0,-158 98,-158 98,-194"/>
<text text-anchor="start" x="8" y="-179.8" font-family="Times,serif" font-weight="bold" font-size="14.00">dynamic_slice</text>
<text text-anchor="start" x="21.5" y="-165.8" font-family="Times,serif" font-size="14.00">f32[5000]</text>
</a>
</g>
</g>
<!-- 140221984073136 -->
<g id="node140221984073136" class="node">
<title>140221984073136</title>
<g id="a_node140221984073136"><a xlink:title=" ">
<polygon fill="#fff26e" stroke="#ffdb13" points="209.5,-122 124.5,-122 124.5,-86 209.5,-86 209.5,-122"/>
<text text-anchor="start" x="132.5" y="-107.8" font-family="Times,serif" font-weight="bold" font-size="14.00">dot_general</text>
<text text-anchor="start" x="139.5" y="-93.8" font-family="Times,serif" font-size="14.00">f32[1000]</text>
</a>
</g>
</g>
<!-- 140221984071216&#45;&gt;140221984073136 -->
<g id="edge7" class="edge">
<title>140221984071216&#45;&gt;140221984073136</title>
<path fill="none" stroke="black" d="M78.47,-157.52C93.51,-148.6 111.99,-137.63 128.18,-128.03"/>
<polygon fill="black" stroke="black" points="129.79,-131.15 136.6,-123.03 126.22,-125.12 129.79,-131.15"/>
</g>
<!-- 140221984073136&#45;&gt;140221984068336 -->
<g id="edge9" class="edge">
<title>140221984073136&#45;&gt;140221984068336</title>
<path fill="none" stroke="black" d="M177.21,-85.53C181.62,-77.98 186.94,-68.89 192.07,-60.1"/>
<polygon fill="black" stroke="black" points="194.95,-62.11 196.97,-51.71 188.9,-58.58 194.95,-62.11"/>
</g>
<!-- 1402219840659360 -->
<g id="node1402219840659360" class="node">
<title>1402219840659360</title>
<polygon fill="#ffdeaf" stroke="#ff8a4f" points="281.5,-273 210.5,-273 210.5,-237 281.5,-237 281.5,-273"/>
<text text-anchor="start" x="225.5" y="-258.8" font-family="Times,serif" font-weight="bold" font-size="14.00">args[0]</text>
<text text-anchor="start" x="218.5" y="-244.8" font-family="Times,serif" font-size="14.00">f32[5001]</text>
</g>
<!-- 1402219840659360&#45;&gt;140221984066416 -->
<g id="edge1" class="edge">
<title>1402219840659360&#45;&gt;140221984066416</title>
<path fill="none" stroke="black" d="M254.85,-236.53C259.64,-227.08 265.66,-215.19 271.06,-204.52"/>
<polygon fill="black" stroke="black" points="274.11,-206.26 275.5,-195.75 267.86,-203.09 274.11,-206.26"/>
</g>
<!-- 140221984068816 -->
<g id="node7" class="node">
<title>140221984068816</title>
<polygon fill="#e6d6ff" stroke="#a261ff" points="354,-273 300,-273 300,-237 354,-237 354,-273"/>
<text text-anchor="start" x="313" y="-252.3" font-family="Times,serif" font-weight="bold" font-size="14.00">s32[]</text>
</g>
<!-- 140221984068816&#45;&gt;140221984066416 -->
<g id="edge2" class="edge">
<title>140221984068816&#45;&gt;140221984066416</title>
<path fill="none" stroke="black" d="M317.47,-236.53C312.26,-226.98 305.69,-214.94 299.83,-204.19"/>
<polygon fill="black" stroke="black" points="303.08,-202.84 295.22,-195.73 296.93,-206.19 303.08,-202.84"/>
</g>
<!-- 1402219840659361 -->
<g id="node1402219840659361" class="node">
<title>1402219840659361</title>
<polygon fill="#ffeacc" stroke="#ff8a4f" points="81.5,-280 10.5,-280 10.5,-230 81.5,-230 81.5,-280"/>
<text text-anchor="start" x="26" y="-265.8" font-family="Times,serif" font-weight="bold" font-size="14.00" fill="#565858">(reuse)</text>
<text text-anchor="start" x="25.5" y="-251.8" font-family="Times,serif" font-weight="bold" font-size="14.00" fill="#565858">args[0]</text>
<text text-anchor="start" x="18.5" y="-237.8" font-family="Times,serif" font-size="14.00" fill="#565858">f32[5001]</text>
</g>
<!-- 1402219840659361&#45;&gt;140221984071216 -->
<g id="edge4" class="edge">
<title>1402219840659361&#45;&gt;140221984071216</title>
<path fill="none" stroke="black" d="M46.95,-229.64C47.25,-222.03 47.58,-213.57 47.88,-205.69"/>
<polygon fill="black" stroke="black" points="51.37,-206.02 48.26,-195.89 44.38,-205.74 51.37,-206.02"/>
</g>
<!-- 140221984069296 -->
<g id="node9" class="node">
<title>140221984069296</title>
<polygon fill="#e6d6ff" stroke="#a261ff" points="154,-273 100,-273 100,-237 154,-237 154,-273"/>
<text text-anchor="start" x="113" y="-252.3" font-family="Times,serif" font-weight="bold" font-size="14.00">s32[]</text>
</g>
<!-- 140221984069296&#45;&gt;140221984071216 -->
<g id="edge5" class="edge">
<title>140221984069296&#45;&gt;140221984071216</title>
<path fill="none" stroke="black" d="M109.3,-236.53C99.03,-226.39 85.91,-213.44 74.54,-202.21"/>
<polygon fill="black" stroke="black" points="77.28,-200 67.71,-195.47 72.36,-204.98 77.28,-200"/>
</g>
<!-- 140222246957296 -->
<g id="node10" class="node">
<title>140222246957296</title>
<polygon fill="#e6d6ff" stroke="#a261ff" points="217.5,-194 116.5,-194 116.5,-158 217.5,-158 217.5,-194"/>
<text text-anchor="start" x="124.5" y="-173.3" font-family="Times,serif" font-weight="bold" font-size="14.00">f32[1000,5000]</text>
</g>
<!-- 140222246957296&#45;&gt;140221984073136 -->
<g id="edge6" class="edge">
<title>140222246957296&#45;&gt;140221984073136</title>
<path fill="none" stroke="black" d="M167,-157.7C167,-150.41 167,-141.73 167,-133.54"/>
<polygon fill="black" stroke="black" points="170.5,-133.62 167,-123.62 163.5,-133.62 170.5,-133.62"/>
</g>
</g>
</svg>
